<svg version="1.1"
  xmlns="http://www.w3.org/2000/svg" viewBox="0 0 1921.5466908046178 2488.9112087426806" width="1921.5466908046178" height="2488.9112087426806">
  <!-- svg-source:excalidraw -->

  <defs>
    <style class="style-fonts">
      @font-face {
        font-family: "Virgil";
        src: url("./fonts/Virgil.woff2");
      }
      @font-face {
        font-family: "Cascadia";
      }
      @font-face {
        font-family: "Assistant";
      }
    </style>

  </defs>
  <rect x="0" y="0" width="1921.5466908046178" height="2488.9112087426806" fill="#f8f9fa"></rect>
  <g transform="translate(733.2634349883404 10) rotate(0 171.9899291992188 22.5)">
    <text x="0" y="0" font-family="Virgil, Segoe UI Emoji" font-size="36px" fill="#1e1e1e" text-anchor="start" style="white-space: pre;" direction="ltr" dominant-baseline="text-before-edge">Longitudinal section</text>
  </g>
  <g stroke-linecap="round" transform="translate(176.34337930830674 277.852299296555) rotate(0 59.55555725097656 113.33332824707031)">
    <path d="M1.98 -1.96 C44.76 -3.13, 84.03 -3.94, 118.31 1.68 M0.65 -1.35 C40.66 2.26, 79.1 1.26, 120.78 1.45 M120.87 3.27 C120.15 68.38, 116.81 131.71, 118.88 225.34 M118.6 -1.21 C121.51 51.78, 121.28 101.38, 117.43 226.13 M120.49 225.78 C93.19 227.04, 62.26 232.16, -1 226.87 M119.89 225.02 C78.81 226.12, 36.62 223.37, 0.21 227.61 M-0.64 225.2 C-0.39 146.44, 2.69 68.17, -1.77 -1.03 M-1.06 227.41 C1.89 165.79, 1.73 104.05, -0.4 0.97" stroke="#1e1e1e" stroke-width="2" fill="none"></path>
  </g>
  <g stroke-linecap="round" transform="translate(1603.0606463388733 407.4098417893872) rotate(0 59.55555725097656 62.93165966194118)">
    <path d="M-0.77 -1.26 C26.47 0.61, 48.45 -2.67, 119.13 -1.19 M-1.99 0.65 C48.08 2.74, 96.66 0.8, 117.64 0.32 M121.48 -1.87 C125.05 47.3, 121.01 97.23, 120.5 123.06 M119.14 -1.07 C121.66 43.28, 119.89 87.81, 119.34 127.35 M117.37 128.94 C76.58 125.36, 33.28 130.3, -2.73 125.72 M117.44 126.67 C90.31 126.66, 63.72 124.67, -1.17 127.3 M2.03 124.58 C2.47 87.19, -0.31 43.42, -1.47 -0.93 M-0.1 127.83 C0.79 78.56, 3.06 27.07, -1.76 -1.53" stroke="#1e1e1e" stroke-width="2" fill="none"></path>
  </g>
  <g stroke-linecap="round">
    <g transform="translate(174.56554727705674 268.9634137985081) rotate(0 60.88887023925781 -34.22222900390625)">
      <path d="M-1.04 0.55 C3.21 -12.33, -1.02 -32.67, 0.48 -74.41 M-1.04 -0.29 C0.11 -19.29, 1.3 -34.25, 3.13 -73.42 M1.28 -69.61 C21.32 -71.21, 44.94 -72.06, 70.93 -70.53 M2.44 -71.1 C19.62 -72.35, 35.06 -69.22, 68.06 -70.65 M64.89 -69.27 C86.4 -53.24, 98.15 -29.43, 121.08 5.4 M67.41 -70.18 C86.91 -45.51, 104.18 -20.18, 120.02 4.18" stroke="#1e1e1e" stroke-width="2" fill="none"></path>
    </g>
  </g>
  <mask></mask>
  <g stroke-linecap="round" transform="translate(176.3702210931043 175.70755985357812) rotate(0 33.111114501953125 8.888900756835938)">
    <path d="M-0.66 1.71 C24.53 -1.15, 44.57 1.3, 64.92 -0.17 M0.34 0.51 C25.63 -0.5, 51.58 -0.51, 66.15 0.35 M65.94 1.69 C67.23 4.93, 67.24 11.34, 67.13 17.48 M66.72 -0.7 C66.83 4.36, 65.23 9.48, 66.9 17.29 M67.61 17.68 C39.37 16.66, 14.59 16.55, -1.82 19.49 M65.36 18.07 C42.17 17.66, 19.66 18.17, 0.75 17.21 M-0.55 16.91 C-0.35 12.29, 1.77 5.41, -0.32 0.23 M0.88 18.3 C-0.43 13.91, -0.33 10.92, 0.54 0.05" stroke="#1e1e1e" stroke-width="2" fill="none"></path>
  </g>
  <g stroke-linecap="round" transform="translate(1655.0886732836377 347.6183427450147) rotate(0 33.111114501953125 8.888900756835938)">
    <path d="M1.91 -0.36 C24.41 1.73, 47.92 1.64, 66.45 -1.45 M-0.24 0.47 C25.77 -0.45, 50.7 -0.78, 65.37 -0.45 M65.31 1.68 C66.99 6.46, 67.31 10.19, 66.7 17.22 M66.82 -0.48 C66.72 6.36, 66.6 12.91, 66.34 18.32 M64.96 18.29 C50.31 17.07, 34.06 15.98, 0.56 16.7 M66.79 16.94 C50.08 18.55, 33.68 17.14, 0.53 17.08 M1.39 19.03 C0.01 13.31, 0.42 10.25, -0.2 1.26 M-0.7 16.97 C0.34 10.32, -0.37 3.87, -0.05 -0.84" stroke="#1e1e1e" stroke-width="2" fill="none"></path>
  </g>
  <g stroke-linecap="round">
    <g transform="translate(14.264195724646186 175.70868023205327) rotate(0 855.228083752686 84.66302274123805)">
      <path d="M-0.91 0.11 C175.81 -1.88, 347.54 -0.5, 621 1.69 M-0.3 -0.19 C201.71 0.16, 405.3 1.64, 620.95 2.4 M620.78 4.54 C807.23 41.69, 997.95 79.28, 1441.29 170.3 M620.81 2.22 C918.6 64.98, 1217.65 125, 1442.33 169.04 M1441.35 168.8 C1502.75 168.78, 1559.17 167.36, 1713.1 166.63 M1442.33 167.98 C1510.12 172.9, 1578.54 173.14, 1711.46 168.55" stroke="#a18072" stroke-width="2" fill="none"></path>
    </g>
  </g>
  <mask></mask>
  <g stroke-linecap="round" transform="translate(174.56554727705674 507.63010081022685) rotate(0 60.44444274902344 15.455468909756632)">
    <path d="M-2.9 -2.85 C39.99 -1.71, 83.72 2.27, 124.66 -0.44 M0.26 -0.43 C33.7 -1.74, 69.15 -2.02, 121.35 -0.34 M122.6 -3.61 C118.25 7.05, 123.54 22.65, 122.79 31.13 M121.64 0.12 C120.43 11.61, 121.03 19.7, 121.13 32.11 M120.89 28.27 C75.85 29.42, 37.06 28.51, 2.35 29.22 M120.35 30.67 C87.15 32.91, 48.79 32.58, 1.39 30.86 M0.49 34.5 C3.21 23.63, 3.6 14.05, 3.01 -0.9 M-0.18 32.64 C1.03 21.26, -0.05 12.34, 0.85 1.12" stroke="#1e1e1e" stroke-width="2" fill="none"></path>
  </g>
  <g stroke-linecap="round" transform="translate(1601.2828143076233 536.3843061328008) rotate(0 60.44444274902344 15.455468909756632)">
    <path d="M-1.26 2.53 C42.84 1.04, 82.47 0.48, 119.69 3.96 M0.65 0.57 C43.19 4.04, 82.8 0.93, 121.21 1.67 M119.02 3.46 C119.76 11.73, 121.43 26.02, 118.08 32.58 M119.82 0.51 C121.16 10.52, 122.68 23.79, 122.37 32.13 M123.96 31.4 C90.3 30.07, 67.02 27.13, -0.15 28.39 M121.7 30.33 C76.03 29.94, 27.67 27.72, 1.44 31.59 M-1.28 32.81 C3.42 21.46, 1.67 12.29, -0.93 3.64 M1.97 29.54 C1.46 25.19, -0.82 15.93, -1.53 0.18" stroke="#1e1e1e" stroke-width="2" fill="none"></path>
  </g>
  <g transform="translate(10 120.4523783031739) rotate(0 38.07996368408203 12.499999999999986)">
    <text x="0" y="0" font-family="Virgil, Segoe UI Emoji" font-size="20px" fill="#1e1e1e" text-anchor="start" style="white-space: pre;" direction="ltr" dominant-baseline="text-before-edge">Surface</text>
  </g>
  <g stroke-linecap="round">
    <g transform="translate(90.48272283772036 139.56429342066227) rotate(0 18.488810329709878 14.27342629135346)">
      <path d="M1.88 1.84 C10.04 8.84, 20.17 17.38, 37.21 29.09 M-0.4 -0.83 C10.95 6.98, 21.39 16.06, 37.1 29.52" stroke="#1e1e1e" stroke-width="1" fill="none"></path>
    </g>
    <g transform="translate(90.48272283772036 139.56429342066227) rotate(0 18.488810329709878 14.27342629135346)">
      <path d="M17.11 23.17 C20.99 24.55, 26.87 27.37, 37.34 30.06 M14.83 20.49 C22.07 22.75, 28.3 26.16, 37.23 30.49" stroke="#1e1e1e" stroke-width="1" fill="none"></path>
    </g>
    <g transform="translate(90.48272283772036 139.56429342066227) rotate(0 18.488810329709878 14.27342629135346)">
      <path d="M27.49 11.03 C28.47 15.91, 31.43 22.14, 37.34 30.06 M25.21 8.35 C29.49 14.08, 32.83 20.87, 37.23 30.49" stroke="#1e1e1e" stroke-width="1" fill="none"></path>
    </g>
  </g>
  <mask></mask>
  <g transform="translate(10 202.52846861425496) rotate(0 37.57997131347656 25)">
    <text x="0" y="0" font-family="Virgil, Segoe UI Emoji" font-size="20px" fill="#1e1e1e" text-anchor="start" style="white-space: pre;" direction="ltr" dominant-baseline="text-before-edge">Manhole</text>
    <text x="0" y="25" font-family="Virgil, Segoe UI Emoji" font-size="20px" fill="#1e1e1e" text-anchor="start" style="white-space: pre;" direction="ltr" dominant-baseline="text-before-edge">cover</text>
  </g>
  <g stroke-linecap="round">
    <g transform="translate(103.72615229927362 219.63904146273444) rotate(0 24.47310442010823 -17.52050491386447)">
      <path d="M-0.52 1.26 C17.39 -10.51, 32.29 -21.48, 50.86 -36.77 M-0.67 0.23 C11.7 -7.26, 22.64 -15.67, 49.07 -34.32" stroke="#1e1e1e" stroke-width="1" fill="none"></path>
    </g>
    <g transform="translate(103.72615229927362 219.63904146273444) rotate(0 24.47310442010823 -17.52050491386447)">
      <path d="M31.53 -8.36 C39.05 -16.84, 43.58 -24.45, 50.98 -36.05 M31.38 -9.39 C36.36 -14.47, 39.85 -20.47, 49.19 -33.6" stroke="#1e1e1e" stroke-width="1" fill="none"></path>
    </g>
    <g transform="translate(103.72615229927362 219.63904146273444) rotate(0 24.47310442010823 -17.52050491386447)">
      <path d="M19.63 -25.08 C30.97 -28.11, 39.36 -30.29, 50.98 -36.05 M19.48 -26.11 C27.37 -27.28, 33.63 -29.37, 49.19 -33.6" stroke="#1e1e1e" stroke-width="1" fill="none"></path>
    </g>
  </g>
  <mask></mask>
  <g transform="translate(107.7777099609375 1181.417247300778) rotate(0 37.57997131347656 25)">
    <text x="0" y="0" font-family="Virgil, Segoe UI Emoji" font-size="20px" fill="#1e1e1e" text-anchor="start" style="white-space: pre;" direction="ltr" dominant-baseline="text-before-edge">Manhole</text>
    <text x="0" y="25" font-family="Virgil, Segoe UI Emoji" font-size="20px" fill="#1e1e1e" text-anchor="start" style="white-space: pre;" direction="ltr" dominant-baseline="text-before-edge">cover</text>
  </g>
  <g stroke-linecap="round">
    <g transform="translate(195.9482897504455 1191.8611789139059) rotate(0 29.47310442010823 -31.409436188278505)">
      <path d="M-1.12 1.48 C22.25 -21.76, 35.3 -41.95, 55.03 -62.75 M0.38 0.4 C21.84 -24.5, 43.6 -48.33, 57.11 -64.78" stroke="#1e1e1e" stroke-width="1" fill="none"></path>
    </g>
    <g transform="translate(195.9482897504455 1191.8611789139059) rotate(0 29.47310442010823 -31.409436188278505)">
      <path d="M45.53 -35.19 C53.23 -46.75, 50.78 -55.85, 53.2 -64.71 M47.02 -36.26 C49.64 -47.46, 53.18 -58.25, 55.28 -66.74" stroke="#1e1e1e" stroke-width="1" fill="none"></path>
    </g>
    <g transform="translate(195.9482897504455 1191.8611789139059) rotate(0 29.47310442010823 -31.409436188278505)">
      <path d="M29.91 -48.49 C42.54 -55.99, 45.08 -60.83, 53.2 -64.71 M31.4 -49.56 C39.64 -55.98, 49.06 -61.76, 55.28 -66.74" stroke="#1e1e1e" stroke-width="1" fill="none"></path>
    </g>
  </g>
  <mask></mask>
  <g transform="translate(10 270.1108362095891) rotate(0 22.119979858398438 12.5)">
    <text x="0" y="0" font-family="Virgil, Segoe UI Emoji" font-size="20px" fill="#1e1e1e" text-anchor="start" style="white-space: pre;" direction="ltr" dominant-baseline="text-before-edge">Cone</text>
  </g>
  <g stroke-linecap="round">
    <g transform="translate(66.62539924724456 281.6636459515173) rotate(0 49.43828052832458 -22.47095870806092)">
      <path d="M-2.24 -1.66 C33.18 -12.49, 62.98 -24.59, 102.78 -48.13 M0.31 -1.48 C32.49 -13.64, 61.35 -26.48, 100.82 -44.99" stroke="#1e1e1e" stroke-width="1" fill="none"></path>
    </g>
    <g transform="translate(66.62539924724456 281.6636459515173) rotate(0 49.43828052832458 -22.47095870806092)">
      <path d="M77.3 -25.51 C87.22 -29.4, 91.66 -33.72, 104.73 -48.18 M79.85 -25.33 C87.75 -31.48, 92.51 -36.92, 102.77 -45.05" stroke="#1e1e1e" stroke-width="1" fill="none"></path>
    </g>
    <g transform="translate(66.62539924724456 281.6636459515173) rotate(0 49.43828052832458 -22.47095870806092)">
      <path d="M68.69 -44.14 C81.32 -41.85, 88.57 -40.08, 104.73 -48.18 M71.24 -43.96 C81.67 -44.17, 89.11 -43.82, 102.77 -45.05" stroke="#1e1e1e" stroke-width="1" fill="none"></path>
    </g>
  </g>
  <mask></mask>
  <g transform="translate(10 458.2616920932809) rotate(0 27.299148559570312 13.74315620536737)">
    <text x="0" y="0" font-family="Virgil, Segoe UI Emoji" font-size="21.98904992858783px" fill="#1e1e1e" text-anchor="start" style="white-space: pre;" direction="ltr" dominant-baseline="text-before-edge">Base</text>
  </g>
  <g stroke-linecap="round">
    <g transform="translate(78.23796082848008 471.9200344030505) rotate(0 51.56225839878573 24.044357776194033)">
      <path d="M-0.69 1.74 C41.52 23.28, 76.43 39.29, 99.68 49.38 M-1.48 1.4 C22.99 10.91, 49.52 24.45, 101.36 47.82" stroke="#1e1e1e" stroke-width="1" fill="none"></path>
    </g>
    <g transform="translate(78.23796082848008 471.9200344030505) rotate(0 51.56225839878573 24.044357776194033)">
      <path d="M70.76 47.14 C84.91 49.89, 91.47 48.21, 97.91 49.12 M69.97 46.8 C77.57 44.97, 86.93 47.79, 99.59 47.55" stroke="#1e1e1e" stroke-width="1" fill="none"></path>
    </g>
    <g transform="translate(78.23796082848008 471.9200344030505) rotate(0 51.56225839878573 24.044357776194033)">
      <path d="M79.31 28.49 C90.04 38.33, 93.29 43.87, 97.91 49.12 M78.52 28.15 C83.99 30.62, 91.34 37.82, 99.59 47.55" stroke="#1e1e1e" stroke-width="1" fill="none"></path>
    </g>
  </g>
  <mask></mask>
  <g transform="translate(336.4903138175843 299.7046268591446) rotate(0 83.9399185180664 37.5)">
    <text x="0" y="0" font-family="Virgil, Segoe UI Emoji" font-size="20px" fill="#1e1e1e" text-anchor="start" style="white-space: pre;" direction="ltr" dominant-baseline="text-before-edge">Shaft</text>
    <text x="0" y="25" font-family="Virgil, Segoe UI Emoji" font-size="20px" fill="#1e1e1e" text-anchor="start" style="white-space: pre;" direction="ltr" dominant-baseline="text-before-edge">with defined form</text>
    <text x="0" y="50" font-family="Virgil, Segoe UI Emoji" font-size="20px" fill="#1e1e1e" text-anchor="start" style="white-space: pre;" direction="ltr" dominant-baseline="text-before-edge">e.g. circular</text>
  </g>
  <g stroke-linecap="round">
    <g transform="translate(336.0014040773255 380.08377147678686) rotate(0 -28.294538052214023 15.924548403654967)">
      <path d="M-1.79 -2.05 C-20.57 10.96, -36.82 20.44, -58.19 31.08 M-0.67 -1.22 C-12.96 8.17, -27.53 16.49, -56.98 30.25" stroke="#1e1e1e" stroke-width="1" fill="none"></path>
    </g>
    <g transform="translate(336.0014040773255 380.08377147678686) rotate(0 -28.294538052214023 15.924548403654967)">
      <path d="M-37.9 6.65 C-45.13 16.8, -49.98 22.99, -58.58 29.47 M-36.78 7.48 C-39.95 14.56, -45.59 20.31, -57.38 28.64" stroke="#1e1e1e" stroke-width="1" fill="none"></path>
    </g>
    <g transform="translate(336.0014040773255 380.08377147678686) rotate(0 -28.294538052214023 15.924548403654967)">
      <path d="M-28.94 25.11 C-38.74 29.26, -46.45 29.57, -58.58 29.47 M-27.82 25.94 C-32.91 28.33, -40.79 29.47, -57.38 28.64" stroke="#1e1e1e" stroke-width="1" fill="none"></path>
    </g>
  </g>
  <mask></mask>
  <g stroke-linecap="round" transform="translate(299.32681272554845 469.3126165638116) rotate(1.2187569805830154 652.1998923767173 18.083176058571325)">
    <path d="M0 0 C307.4 0.81, 614.83 -0.06, 1304.4 0 M0 0 C289.17 -0.12, 578.54 -0.17, 1304.4 0 M1304.4 0 C1305.37 15.03, 1303.98 29.17, 1304.4 36.17 M1304.4 0 C1304.4 8.29, 1304.66 19.15, 1304.4 36.17 M1304.4 36.17 C960.66 34.97, 617.95 33.97, 0 36.17 M1304.4 36.17 C938.25 41.21, 571.95 40.55, 0 36.17 M0 36.17 C1.54 22.75, -1.9 10.08, 0 0 M0 36.17 C-0.95 26.21, 0.88 14.71, 0 0" stroke="#1e1e1e" stroke-width="1" fill="none"></path>
  </g>
  <g stroke-linecap="round" transform="translate(301.024735521281 443.3766490084761) rotate(1.2187569805830154 651.2427202116814 43.09326572490937)">
    <path d="M-1.01 -1.51 C448.39 4.47, 898.94 3.18, 1303.44 -0.65 M1304.23 0.96 C1306.56 19.99, 1301.61 38.47, 1300.29 87.43 M1302.07 86.35 C927.77 77.8, 553.24 75.37, 0.69 87.41 M1.57 83.12 C2.83 59.86, 1.88 34.59, 2.62 -2.37" stroke="#1971c2" stroke-width="2.5" fill="none" stroke-dasharray="8 10"></path>
  </g>
  <g stroke-linecap="round" transform="translate(287.4788664064883 1282.4989743993478) rotate(18.849923863774148 688.0195666263977 43.09326572490943)">
    <path d="M0.52 -1.1 C424.17 -10.46, 844.23 -9.25, 1375.59 -0.04 M1379.76 1.1 C1373.34 17.17, 1378.7 34.71, 1374.45 89.59 M1377.44 85.58 C883.82 90.64, 395.8 90.63, 0.67 85.78 M2.37 83.36 C1.43 69.01, 3.4 45.09, 1.88 -3.52" stroke="#1971c2" stroke-width="2.5" fill="none" stroke-dasharray="8 10"></path>
  </g>
  <g stroke-linecap="round" transform="translate(1601.0932965296413 368.62277366060374) rotate(0 61.179976779951176 17.972706323860535)">
    <path d="M-2.14 3.07 C49.35 -1.86, 94.01 -1.3, 122.78 -3.55 M1.52 -0.62 C29.6 0.49, 60.18 2.27, 122.23 -1.7 M121.23 -0.59 C119.68 5.67, 121.43 14.18, 123.05 36.15 M120.77 1.8 C120.87 12.65, 121.84 26.16, 121.95 35.86 M119.77 39.93 C84.95 36.92, 57.92 35.73, 1.22 39.24 M121.8 34.76 C88.08 34.43, 53.61 35.98, -0.19 34.25 M0.32 35.44 C-2.49 26.34, 1.95 11.65, -2.75 -0.82 M1.12 35.8 C-0.3 26.46, -0.95 15.23, -0.95 0.35" stroke="#1e1e1e" stroke-width="2" fill="none"></path>
  </g>
  <g transform="translate(1453.9491450333553 370.4330505904246) rotate(0 52.32994842529297 12.5)">
    <text x="0" y="0" font-family="Virgil, Segoe UI Emoji" font-size="20px" fill="#1e1e1e" text-anchor="start" style="white-space: pre;" direction="ltr" dominant-baseline="text-before-edge">Coverplate</text>
  </g>
  <g stroke-linecap="round">
    <g transform="translate(1570.9944814143892 381.6725658146613) rotate(0 13.352083339916362 3.6037039772246544)">
      <path d="M0.35 0.59 C10.19 2.5, 22.42 4.74, 25.41 7.17 M0.09 0.54 C7.26 1.54, 15.01 3.88, 26.06 6.72" stroke="#1e1e1e" stroke-width="1" fill="none"></path>
    </g>
    <g transform="translate(1570.9944814143892 381.6725658146613) rotate(0 13.352083339916362 3.6037039772246544)">
      <path d="M12.53 8.4 C17.47 7.29, 24.09 6.37, 25.16 6.7 M12.35 8.37 C15.89 7.25, 19.87 7.03, 25.61 6.39" stroke="#1e1e1e" stroke-width="1" fill="none"></path>
    </g>
    <g transform="translate(1570.9944814143892 381.6725658146613) rotate(0 13.352083339916362 3.6037039772246544)">
      <path d="M14.94 -0.75 C18.94 1.76, 24.61 4.44, 25.16 6.7 M14.75 -0.78 C17.64 0.81, 20.91 3.28, 25.61 6.39" stroke="#1e1e1e" stroke-width="1" fill="none"></path>
    </g>
  </g>
  <mask></mask>
  <g transform="translate(870.1496428232344 409.2252938557067) rotate(0 27.40997314453125 12.5)">
    <text x="0" y="0" font-family="Virgil, Segoe UI Emoji" font-size="20px" fill="#1971c2" text-anchor="start" style="white-space: pre;" direction="ltr" dominant-baseline="text-before-edge">Sewer</text>
  </g>
  <g transform="translate(828.663168288226 1351.2580869246392) rotate(17.631166883191135 27.40997314453125 12.5)">
    <text x="0" y="0" font-family="Virgil, Segoe UI Emoji" font-size="20px" fill="#1971c2" text-anchor="start" style="white-space: pre;" direction="ltr" dominant-baseline="text-before-edge">Sewer</text>
  </g>
  <g stroke-linecap="round" transform="translate(878.3241575937423 475.0189606953063) rotate(0 9.523838588169724 9.523838588169667)">
    <path d="M10.22 -0.1 C12.14 -0.13, 14.29 0.76, 15.77 2.14 C17.24 3.52, 18.71 6.08, 19.07 8.19 C19.43 10.3, 19.14 13.02, 17.94 14.81 C16.75 16.59, 13.92 18.38, 11.91 18.89 C9.89 19.4, 7.69 18.76, 5.86 17.85 C4.02 16.95, 1.89 15.15, 0.91 13.48 C-0.07 11.81, -0.49 9.7, -0.02 7.84 C0.46 5.99, 1.96 3.6, 3.76 2.33 C5.57 1.07, 9.68 0.61, 10.79 0.26 C11.91 -0.09, 10.48 0.08, 10.45 0.23 M8.41 -0.16 C10.41 -0.28, 13.22 0.9, 15.04 2.14 C16.85 3.37, 18.72 5.26, 19.3 7.26 C19.88 9.26, 19.39 12.4, 18.52 14.11 C17.66 15.83, 16.04 16.77, 14.1 17.53 C12.16 18.29, 8.88 19, 6.89 18.67 C4.9 18.33, 3.19 17.13, 2.15 15.52 C1.11 13.92, 0.43 11.25, 0.66 9.05 C0.89 6.84, 2.17 3.71, 3.54 2.29 C4.92 0.88, 7.96 1.02, 8.91 0.57 C9.85 0.12, 9.11 -0.57, 9.19 -0.43" stroke="#1e1e1e" stroke-width="2" fill="none"></path>
  </g>
  <g transform="translate(721.7731578216935 531.4871804523863) rotate(0 49.3299560546875 25)">
    <text x="0" y="0" font-family="Virgil, Segoe UI Emoji" font-size="20px" fill="#1e1e1e" text-anchor="start" style="white-space: pre;" direction="ltr" dominant-baseline="text-before-edge">Connecting</text>
    <text x="0" y="25" font-family="Virgil, Segoe UI Emoji" font-size="20px" fill="#1e1e1e" text-anchor="start" style="white-space: pre;" direction="ltr" dominant-baseline="text-before-edge">Lateral</text>
  </g>
  <g stroke-linecap="round">
    <g transform="translate(832.8185094615164 548.2436287782073) rotate(0 22.123261045121353 -26.798008504645622)">
      <path d="M3.75 3.23 C15.57 -22.62, 37.26 -38.34, 44.31 -52.86 M-1.51 1.6 C11.96 -13.93, 19.88 -28.14, 42.39 -54.49" stroke="#1e1e1e" stroke-width="1" fill="none"></path>
    </g>
    <g transform="translate(832.8185094615164 548.2436287782073) rotate(0 22.123261045121353 -26.798008504645622)">
      <path d="M36.35 -22.9 C34.93 -39.68, 43.8 -46.02, 42.45 -53.75 M31.09 -24.52 C36.2 -33.46, 35.79 -41.58, 40.53 -55.38" stroke="#1e1e1e" stroke-width="1" fill="none"></path>
    </g>
    <g transform="translate(832.8185094615164 548.2436287782073) rotate(0 22.123261045121353 -26.798008504645622)">
      <path d="M20.41 -35.83 C24.69 -47.66, 39.49 -49.19, 42.45 -53.75 M15.15 -37.45 C24.09 -43.49, 27.54 -48.48, 40.53 -55.38" stroke="#1e1e1e" stroke-width="1" fill="none"></path>
    </g>
  </g>
  <mask></mask>
  <g mask="url(#mask-hE6vT0uRfc9HPYKTOicN0)" stroke-linecap="round">
    <g transform="translate(989.5147246103438 486.1565370255821) rotate(0 54.603140694754416 0.6348964146205844)">
      <path d="M-0.65 1.03 C17.34 1.58, 91.02 2.33, 109.16 2.45 M1.2 0.52 C18.94 0.85, 89.96 1.1, 108.18 0.95" stroke="#1e1e1e" stroke-width="2" fill="none"></path>
    </g>
    <g transform="translate(989.5147246103438 486.1565370255821) rotate(0 54.603140694754416 0.6348964146205844)">
      <path d="M108.99 0.6 L94.06 8.49 L94.08 -5.86 L108.37 -0.95" stroke="none" stroke-width="0" fill="#1e1e1e" fill-rule="evenodd"></path>
      <path d="M108.18 0.95 C104.01 3.34, 98.8 4.64, 94.59 7.31 M108.18 0.95 C103.89 2.99, 98.97 5.99, 94.59 7.31 M94.59 7.31 C95.43 4.61, 95.88 0.48, 94.58 -5.37 M94.59 7.31 C94.6 2.55, 94.97 -2.67, 94.58 -5.37 M94.58 -5.37 C97.08 -4.04, 99.44 -1.48, 108.18 0.95 M94.58 -5.37 C99.49 -3.69, 103.82 -0.53, 108.18 0.95 M108.18 0.95 C108.18 0.95, 108.18 0.95, 108.18 0.95 M108.18 0.95 C108.18 0.95, 108.18 0.95, 108.18 0.95" stroke="#1e1e1e" stroke-width="2" fill="none"></path>
    </g>
  </g>
  <mask id="mask-hE6vT0uRfc9HPYKTOicN0">
    <rect x="0" y="0" fill="#fff" width="1198.7210059998527" height="587.4263298548233"></rect>
    <rect x="1019.4678942967976" y="474.2914334402026" fill="#000" width="49.29994201660156" height="25" opacity="1"></rect>
  </mask>
  <g transform="translate(1019.4678942967976 474.2914334402027) rotate(0 24.29793157577501 13.35101197715386)">
    <text x="24.64997100830078" y="0" font-family="Virgil, Segoe UI Emoji" font-size="20px" fill="#1e1e1e" text-anchor="middle" style="white-space: pre;" direction="ltr" dominant-baseline="text-before-edge">Slope</text>
  </g>
  <g mask="url(#mask-j2ZJavBZqNKPmFx0iqF9S)" stroke-linecap="round">
    <g transform="translate(911.3666329762293 1305.045442868681) rotate(0 60.89947655087417 19.523802257719467)">
      <path d="M-0.87 -0.13 C19.5 6.21, 101.81 31.45, 122.4 38.02 M0.88 -1.25 C21.12 5.22, 101.51 32.02, 121.77 39.02" stroke="#1e1e1e" stroke-width="2" fill="none"></path>
    </g>
    <g transform="translate(911.3666329762293 1305.045442868681) rotate(0 60.89947655087417 19.523802257719467)">
      <path d="M121.53 39.45 L106.06 40.81 L109.15 28.82 L122.43 38.47" stroke="none" stroke-width="0" fill="#1e1e1e" fill-rule="evenodd"></path>
      <path d="M121.77 39.02 C116.84 40.19, 110.96 41.12, 106.87 40.67 M121.77 39.02 C117.23 39.06, 111.94 40.17, 106.87 40.67 M106.87 40.67 C107.37 37.15, 108.32 33.21, 110.93 28.66 M106.87 40.67 C107.07 38.11, 108.64 35.62, 110.93 28.66 M110.93 28.66 C114.39 33.77, 119.81 36.41, 121.77 39.02 M110.93 28.66 C115.55 32.61, 118.51 35.73, 121.77 39.02 M121.77 39.02 C121.77 39.02, 121.77 39.02, 121.77 39.02 M121.77 39.02 C121.77 39.02, 121.77 39.02, 121.77 39.02" stroke="#1e1e1e" stroke-width="2" fill="none"></path>
    </g>
  </g>
  <mask id="mask-j2ZJavBZqNKPmFx0iqF9S">
    <rect x="0" y="0" fill="#fff" width="1133.1655860779777" height="1444.09304738412"></rect>
    <rect x="947.6161385188027" y="1312.0692451264006" fill="#000" width="49.29994201660156" height="25" opacity="1"></rect>
  </mask>
  <g transform="translate(947.6161385188025 1312.0692451264003) rotate(0 24.519992733001686 11.859387036627254)">
    <text x="24.64997100830078" y="0" font-family="Virgil, Segoe UI Emoji" font-size="20px" fill="#1e1e1e" text-anchor="middle" style="white-space: pre;" direction="ltr" dominant-baseline="text-before-edge">Slope</text>
  </g>
  <g transform="translate(783.3557367476205 880.1858041096127) rotate(0 80.20796203613281 22.5)">
    <text x="0" y="0" font-family="Virgil, Segoe UI Emoji" font-size="36px" fill="#1e1e1e" text-anchor="start" style="white-space: pre;" direction="ltr" dominant-baseline="text-before-edge">Plan view</text>
  </g>
  <g transform="translate(812.957650472548 1823.6026176013909) rotate(0 239.27392578125 45)">
    <text x="239.27392578125" y="0" font-family="Virgil, Segoe UI Emoji" font-size="36px" fill="#1e1e1e" text-anchor="middle" style="white-space: pre;" direction="ltr" dominant-baseline="text-before-edge">Graph view</text>
    <text x="239.27392578125" y="45" font-family="Virgil, Segoe UI Emoji" font-size="36px" fill="#1e1e1e" text-anchor="middle" style="white-space: pre;" direction="ltr" dominant-baseline="text-before-edge">(often used for hydraulics)</text>
  </g>
  <g stroke-linecap="round" transform="translate(277.86868505775163 1306.0810526634978) rotate(18.631145484789645 694.1953468762293 20.64780920571752)">
    <path d="M10.32 0 C503.66 2.31, 996.5 2.94, 1378.07 0 M10.32 0 C492.72 -4.71, 975.3 -4.55, 1378.07 0 M1378.07 0 C1383.41 -0.89, 1386.43 3.36, 1388.39 10.32 M1378.07 0 C1386.8 1.03, 1388.93 5.17, 1388.39 10.32 M1388.39 10.32 C1387.16 16.17, 1386.37 21.76, 1388.39 30.97 M1388.39 10.32 C1387.37 18.16, 1387.46 26.51, 1388.39 30.97 M1388.39 30.97 C1386.7 36.13, 1384.56 39.71, 1378.07 41.3 M1388.39 30.97 C1386.86 36.94, 1382.98 42, 1378.07 41.3 M1378.07 41.3 C984.87 38.96, 590.64 38.88, 10.32 41.3 M1378.07 41.3 C974.94 41.74, 571.93 41.42, 10.32 41.3 M10.32 41.3 C3.19 40.5, -1.3 37.35, 0 30.97 M10.32 41.3 C3.07 39.48, 1.12 38.38, 0 30.97 M0 30.97 C-0.84 24.65, 0.19 18.63, 0 10.32 M0 30.97 C-0.43 23.66, 0.49 15.54, 0 10.32 M0 10.32 C-0.57 4.93, 2.89 -0.74, 10.32 0 M0 10.32 C0.3 2.48, 3.05 -2.13, 10.32 0" stroke="#1e1e1e" stroke-width="4" fill="none"></path>
  </g>
  <g stroke-linecap="round" transform="translate(183.03421070945313 2168.5102564743406) rotate(18.631145484789645 694.1953468762293 20.64780920571752)">
    <path d="M10.32 0 C318.07 0, 625.81 0, 1378.07 0 C1384.95 0, 1388.39 3.44, 1388.39 10.32 C1388.39 17.37, 1388.39 24.42, 1388.39 30.97 C1388.39 37.85, 1384.95 41.3, 1378.07 41.3 C902.06 41.3, 426.06 41.3, 10.32 41.3 C3.44 41.3, 0 37.85, 0 30.97 C0 24.7, 0 18.42, 0 10.32 C0 3.44, 3.44 0, 10.32 0" stroke="none" stroke-width="0" fill="#868e96"></path>
    <path d="M10.32 0 C546.27 0, 1082.22 0, 1378.07 0 M10.32 0 C443.4 0, 876.49 0, 1378.07 0 M1378.07 0 C1384.95 0, 1388.39 3.44, 1388.39 10.32 M1378.07 0 C1384.95 0, 1388.39 3.44, 1388.39 10.32 M1388.39 10.32 C1388.39 15.74, 1388.39 21.15, 1388.39 30.97 M1388.39 10.32 C1388.39 15.31, 1388.39 20.29, 1388.39 30.97 M1388.39 30.97 C1388.39 37.85, 1384.95 41.3, 1378.07 41.3 M1388.39 30.97 C1388.39 37.85, 1384.95 41.3, 1378.07 41.3 M1378.07 41.3 C933.45 41.3, 488.83 41.3, 10.32 41.3 M1378.07 41.3 C1103.66 41.3, 829.26 41.3, 10.32 41.3 M10.32 41.3 C3.44 41.3, 0 37.85, 0 30.97 M10.32 41.3 C3.44 41.3, 0 37.85, 0 30.97 M0 30.97 C0 24.55, 0 18.14, 0 10.32 M0 30.97 C0 23.2, 0 15.43, 0 10.32 M0 10.32 C0 3.44, 3.44 0, 10.32 0 M0 10.32 C0 3.44, 3.44 0, 10.32 0" stroke="#868e96" stroke-width="4" fill="none"></path>
  </g>
  <g stroke-linecap="round" transform="translate(215.4591379317028 1034.0745065021906) rotate(0 56.11112594604489 56.11112594604492)">
    <path d="M29.25 7.12 C36.85 2.05, 49.5 -0.86, 58.97 -0.51 C68.44 -0.16, 78.2 4.09, 86.09 9.21 C93.98 14.32, 101.88 22.1, 106.33 30.17 C110.78 38.25, 113.28 48.38, 112.81 57.64 C112.33 66.91, 108.68 77.77, 103.47 85.75 C98.26 93.74, 89.97 101.01, 81.53 105.55 C73.1 110.09, 62.05 113.18, 52.87 112.98 C43.69 112.78, 34.22 109.38, 26.47 104.32 C18.73 99.26, 10.85 91.16, 6.42 82.61 C1.98 74.07, -0.67 62.58, -0.13 53.06 C0.42 43.54, 3.94 33.62, 9.7 25.48 C15.46 17.34, 29.42 7.75, 34.41 4.19 C39.4 0.64, 39.15 3.32, 39.66 4.12 M54.07 0.3 C62.8 -1.27, 73.24 1.79, 81.13 5.72 C89.02 9.65, 96.19 15.97, 101.41 23.89 C106.62 31.82, 111.45 43.93, 112.41 53.27 C113.36 62.61, 111.41 71.55, 107.13 79.94 C102.84 88.34, 94.56 98.17, 86.7 103.63 C78.85 109.1, 69.41 112.19, 60 112.73 C50.59 113.27, 38.91 110.89, 30.24 106.86 C21.58 102.83, 13.02 96.4, 8.02 88.55 C3.02 80.71, 0.65 69.6, 0.26 59.79 C-0.14 49.99, 1.35 38.08, 5.64 29.7 C9.92 21.31, 18.31 14.19, 25.95 9.48 C33.6 4.77, 47.15 2.74, 51.51 1.45 C55.88 0.17, 51.85 0.9, 52.14 1.77" stroke="#1e1e1e" stroke-width="4" fill="none"></path>
  </g>
  <g stroke-linecap="round" transform="translate(230.7368288191539 1049.0744492817314) rotate(0 41.66669845581055 41.66669845581055)">
    <path d="M61.42 3.71 C67.82 6.39, 73.25 14.26, 76.9 20.88 C80.55 27.51, 83.49 35.98, 83.32 43.49 C83.14 51, 80.3 59.84, 75.86 65.94 C71.41 72.04, 63.62 77.17, 56.63 80.08 C49.65 83, 41.32 84.67, 33.96 83.42 C26.59 82.17, 17.99 77.88, 12.46 72.58 C6.94 67.28, 2.63 58.9, 0.78 51.6 C-1.06 44.31, -1.05 35.94, 1.41 28.81 C3.86 21.67, 9.57 13.59, 15.51 8.8 C21.44 4, 29.38 0.56, 37.02 0.06 C44.66 -0.44, 57.19 4.55, 61.37 5.78 C65.54 7.01, 62.39 6.83, 62.05 7.44 M25.23 3.42 C31.71 -0.19, 41.05 -1.76, 48.68 -0.34 C56.32 1.07, 65.28 6.46, 71.01 11.91 C76.75 17.37, 81.52 25.33, 83.11 32.39 C84.7 39.46, 83.1 47.38, 80.58 54.31 C78.05 61.23, 73.61 68.99, 67.95 73.92 C62.29 78.86, 54.2 83.18, 46.64 83.91 C39.08 84.64, 29.18 81.89, 22.6 78.32 C16.01 74.74, 10.97 68.75, 7.14 62.47 C3.32 56.19, -0.29 48.14, -0.36 40.61 C-0.43 33.08, 2.21 23.38, 6.73 17.29 C11.24 11.19, 23.78 6.47, 26.72 4.05 C29.65 1.63, 24.51 2.31, 24.34 2.76" stroke="#1e1e1e" stroke-width="4" fill="none"></path>
  </g>
  <g stroke-linecap="round" transform="translate(243.2368860396129 1079.6300790119562) rotate(0 21.66667938232422 21.66667938232422)">
    <path d="M17.94 0.81 C22.13 -0.28, 27.91 0.41, 31.89 2.62 C35.87 4.83, 40.03 9.62, 41.81 14.05 C43.58 18.48, 44 24.72, 42.53 29.19 C41.05 33.65, 37.03 38.57, 32.96 40.83 C28.88 43.09, 22.75 43.53, 18.08 42.75 C13.41 41.98, 7.89 39.74, 4.93 36.19 C1.98 32.64, 0.31 26.1, 0.36 21.43 C0.41 16.77, 2.18 11.71, 5.23 8.22 C8.28 4.73, 16.13 1.87, 18.66 0.5 C21.19 -0.87, 20.36 -0.35, 20.42 0 M18.27 0.03 C22.58 -0.86, 29.58 0.51, 33.46 3.06 C37.34 5.61, 40.2 10.85, 41.55 15.35 C42.9 19.86, 43.23 25.75, 41.57 30.1 C39.91 34.44, 35.57 39.25, 31.59 41.41 C27.61 43.57, 22.24 44.07, 17.68 43.07 C13.12 42.08, 7.21 39.05, 4.23 35.46 C1.25 31.87, -0.38 26.33, -0.22 21.53 C-0.05 16.73, 2.06 10.24, 5.22 6.66 C8.39 3.08, 16.61 1.12, 18.77 0.05 C20.92 -1.03, 18.22 -0.2, 18.16 0.21" stroke="#1e1e1e" stroke-width="2" fill="none"></path>
  </g>
  <g stroke-linecap="round" transform="translate(1673.6073185754199 1517.654693134135) rotate(0 21.66667938232422 21.66667938232422)">
    <path d="M22.14 -0.26 C26.46 -0.41, 32.05 2.09, 35.51 5.27 C38.96 8.46, 42.08 14.18, 42.87 18.86 C43.66 23.54, 42.61 29.41, 40.25 33.36 C37.9 37.31, 33.15 41.06, 28.76 42.55 C24.37 44.04, 18.19 43.96, 13.92 42.29 C9.65 40.63, 5.38 36.71, 3.14 32.56 C0.91 28.41, -0.35 22.04, 0.51 17.39 C1.37 12.75, 4.48 7.58, 8.3 4.71 C12.13 1.84, 20.91 0.9, 23.47 0.18 C26.02 -0.54, 23.66 0.06, 23.64 0.4 M25.09 -0.22 C29.49 0.47, 35.6 4.63, 38.73 8.27 C41.86 11.9, 43.95 17.02, 43.87 21.59 C43.79 26.15, 41.35 32.17, 38.26 35.64 C35.17 39.11, 30.03 41.6, 25.35 42.4 C20.66 43.2, 14.21 42.67, 10.13 40.46 C6.05 38.25, 2.32 33.56, 0.86 29.15 C-0.61 24.73, -0.25 18.39, 1.33 13.97 C2.91 9.54, 6.21 4.89, 10.34 2.58 C14.47 0.26, 23.67 0.34, 26.14 0.08 C28.61 -0.19, 25.37 0.49, 25.18 0.99" stroke="#1e1e1e" stroke-width="2" fill="none"></path>
  </g>
  <g stroke-linecap="round" transform="translate(140.09816669282458 155.6856260904069) rotate(0 91.11095428466797 206.11110687255848)">
    <path d="M32 0 C68.74 -3.01, 100.93 2.68, 150.22 0 M150.22 0 C168.76 1.59, 178.32 10.06, 182.22 32 M182.22 32 C179.99 155.39, 178.64 282.7, 182.22 380.22 M182.22 380.22 C184.26 399.3, 168.58 413.28, 150.22 412.22 M150.22 412.22 C108.84 410.01, 67.91 410.24, 32 412.22 M32 412.22 C12.13 412.35, 1.39 402.09, 0 380.22 M0 380.22 C-1.12 294.32, -0.38 212.79, 0 32 M0 32 C-3.08 9.39, 11.84 -0.11, 32 0" stroke="#e03131" stroke-width="2.5" fill="none" stroke-dasharray="8 10"></path>
  </g>
  <g transform="translate(177.83612993028424 120.16981362528409) rotate(0 37.57997131347656 12.499999999999986)">
    <text x="0" y="0" font-family="Virgil, Segoe UI Emoji" font-size="20px" fill="#e03131" text-anchor="start" style="white-space: pre;" direction="ltr" dominant-baseline="text-before-edge">Manhole</text>
  </g>
  <g stroke-linecap="round">
    <g transform="translate(177.7518403795031 607.1303631160763) rotate(0 59.90078299386164 -0.833343505859375)">
      <path d="M0.18 -0.19 C20 -0.34, 99.58 -1.86, 119.56 -1.96 M-1.18 -1.34 C18.39 -1.21, 98.38 -0.36, 118.48 -0.58" stroke="#1e1e1e" stroke-width="2" fill="none"></path>
    </g>
    <g transform="translate(177.7518403795031 607.1303631160763) rotate(0 59.90078299386164 -0.833343505859375)">
      <path d="M-0.05 -15.19 C-0.34 -10.15, -0.39 -4.17, 0.18 -0.19 M-0.05 -15.19 C0.24 -9.75, 0.8 -4.07, 0.18 -0.19" stroke="#1e1e1e" stroke-width="2" fill="none"></path>
    </g>
    <g transform="translate(177.7518403795031 607.1303631160763) rotate(0 59.90078299386164 -0.833343505859375)">
      <path d="M0.41 14.81 C0.23 9.17, 0.01 4.47, 0.18 -0.19 M0.41 14.81 C0.26 9.03, 0.64 3.49, 0.18 -0.19" stroke="#1e1e1e" stroke-width="2" fill="none"></path>
    </g>
    <g transform="translate(177.7518403795031 607.1303631160763) rotate(0 59.90078299386164 -0.833343505859375)">
      <path d="M118.46 14.42 C118.37 8.78, 118.24 4.08, 118.48 -0.58 M118.46 14.42 C118.4 8.64, 118.88 3.11, 118.48 -0.58" stroke="#1e1e1e" stroke-width="2" fill="none"></path>
    </g>
    <g transform="translate(177.7518403795031 607.1303631160763) rotate(0 59.90078299386164 -0.833343505859375)">
      <path d="M118.5 -15.58 C118.13 -10.54, 117.99 -4.56, 118.48 -0.58 M118.5 -15.58 C118.7 -10.14, 119.17 -4.46, 118.48 -0.58" stroke="#1e1e1e" stroke-width="2" fill="none"></path>
    </g>
  </g>
  <mask></mask>
  <g stroke-linecap="round">
    <g transform="translate(1822.990582213219 1547.6207482032255) rotate(0 -16.143117952293323 51.54965049434861)">
      <path d="M-0.56 -0.67 C-5.93 16.56, -27.11 86.59, -32.33 104.07 M1.35 1.59 C-4.17 18.44, -27.67 85.65, -33.29 102.45" stroke="#1e1e1e" stroke-width="2" fill="none"></path>
    </g>
    <g transform="translate(1822.990582213219 1547.6207482032255) rotate(0 -16.143117952293323 51.54965049434861)">
      <path d="M13.79 3.69 C8.73 2.3, 6.57 1.63, -0.56 -0.67 M13.79 3.69 C8.17 2.07, 2.34 -0.26, -0.56 -0.67" stroke="#1e1e1e" stroke-width="2" fill="none"></path>
    </g>
    <g transform="translate(1822.990582213219 1547.6207482032255) rotate(0 -16.143117952293323 51.54965049434861)">
      <path d="M-14.91 -5.04 C-11.52 -3.74, -5.26 -1.86, -0.56 -0.67 M-14.91 -5.04 C-9.38 -3.45, -3.99 -2.37, -0.56 -0.67" stroke="#1e1e1e" stroke-width="2" fill="none"></path>
    </g>
    <g transform="translate(1822.990582213219 1547.6207482032255) rotate(0 -16.143117952293323 51.54965049434861)">
      <path d="M-47.48 97.59 C-44.14 99.03, -37.93 101.06, -33.29 102.45 M-47.48 97.59 C-42.02 99.37, -36.7 100.65, -33.29 102.45" stroke="#1e1e1e" stroke-width="2" fill="none"></path>
    </g>
    <g transform="translate(1822.990582213219 1547.6207482032255) rotate(0 -16.143117952293323 51.54965049434861)">
      <path d="M-19.1 107.32 C-24.13 105.78, -26.23 104.96, -33.29 102.45 M-19.1 107.32 C-24.66 105.5, -30.42 102.97, -33.29 102.45" stroke="#1e1e1e" stroke-width="2" fill="none"></path>
    </g>
  </g>
  <mask></mask>
  <g stroke-linecap="round" transform="translate(1630.6057832505967 1505.074646737728) rotate(17.976647855437307 62.777862548828125 57.77774810791004)">
    <path d="M0 0 C41.13 0.34, 84.96 2.14, 125.56 0 M0 0 C41.1 -1.37, 83.61 -1.57, 125.56 0 M125.56 0 C127.4 30.62, 125.33 57.22, 125.56 115.56 M125.56 0 C124.08 42.85, 125.2 85.53, 125.56 115.56 M125.56 115.56 C77.78 116.8, 35.19 114.7, 0 115.56 M125.56 115.56 C99.55 114.16, 73.7 114.99, 0 115.56 M0 115.56 C1.11 91.5, 1.08 64.7, 0 0 M0 115.56 C0.96 73.56, 0.85 33.22, 0 0" stroke="#1e1e1e" stroke-width="2" fill="none"></path>
  </g>
  <g stroke-linecap="round" transform="translate(1615.387304299007 1493.589777972313) rotate(17.976647855437307 79.70973161412974 69.94861893909263)">
    <path d="M0 0 C34.3 1.96, 66.37 0.1, 159.42 0 M0 0 C47.79 -1.16, 95.48 -0.41, 159.42 0 M159.42 0 C159.49 39.43, 157.28 78.76, 159.42 139.9 M159.42 0 C159.07 39.02, 158.44 79.82, 159.42 139.9 M159.42 139.9 C126.61 139.17, 91.46 139.63, 0 139.9 M159.42 139.9 C127.43 139.17, 95.42 140.11, 0 139.9 M0 139.9 C-0.59 91.18, -1.47 43.44, 0 0 M0 139.9 C-0.01 92.79, 0.24 45.46, 0 0" stroke="#1e1e1e" stroke-width="2" fill="none"></path>
  </g>
  <g stroke-linecap="round" transform="translate(181.3043400597955 1004.3602592981817) rotate(11.129193106740951 90.00003814697266 86.66664123535156)">
    <path d="M32 0 C65.43 3.75, 101.76 -2.18, 148 0 M148 0 C169.29 1.22, 176.97 8.55, 180 32 M180 32 C174.57 71.43, 180.93 110.73, 180 141.33 M180 141.33 C183.2 161.61, 165.55 170.2, 148 173.33 M148 173.33 C114.77 173.08, 88.92 174.31, 32 173.33 M32 173.33 C10.52 171.65, -2.12 159.74, 0 141.33 M0 141.33 C0.59 114.25, -3.05 87.01, 0 32 M0 32 C2.46 10.56, 9.09 1.03, 32 0" stroke="#e03131" stroke-width="2.5" fill="none" stroke-dasharray="8 10"></path>
  </g>
  <g transform="translate(128.84625363329258 930.3235569102155) rotate(0 37.57997131347656 12.5)">
    <text x="0" y="0" font-family="Virgil, Segoe UI Emoji" font-size="20px" fill="#e03131" text-anchor="start" style="white-space: pre;" direction="ltr" dominant-baseline="text-before-edge">Manhole</text>
  </g>
  <g stroke-linecap="round">
    <g transform="translate(208.32899172980194 952.4670408130332) rotate(0 16.35293630210353 15.37330408061689)">
      <path d="M-1.24 1.71 C13.23 13.45, 24.79 25.56, 34.65 31.92 M-0.78 -0.12 C9.75 9.86, 21.84 19.12, 32.57 30.71" stroke="#e03131" stroke-width="1" fill="none"></path>
    </g>
    <g transform="translate(208.32899172980194 952.4670408130332) rotate(0 16.35293630210353 15.37330408061689)">
      <path d="M10.96 23 C20.5 26.39, 27.29 30.26, 34.52 31.88 M11.43 21.17 C17.85 24.35, 26.01 26.81, 32.44 30.67" stroke="#e03131" stroke-width="1" fill="none"></path>
    </g>
    <g transform="translate(208.32899172980194 952.4670408130332) rotate(0 16.35293630210353 15.37330408061689)">
      <path d="M21.78 12.11 C27.22 19.63, 29.82 27.71, 34.52 31.88 M22.25 10.28 C25.31 16.93, 30.02 22.86, 32.44 30.67" stroke="#e03131" stroke-width="1" fill="none"></path>
    </g>
  </g>
  <mask></mask>
  <g transform="translate(20.762505689829823 1040.7278258062404) rotate(0 82.36994171142578 25)">
    <text x="0" y="0" font-family="Virgil, Segoe UI Emoji" font-size="20px" fill="#9c36b5" text-anchor="start" style="white-space: pre;" direction="ltr" dominant-baseline="text-before-edge">Nominal Length =</text>
    <text x="0" y="25" font-family="Virgil, Segoe UI Emoji" font-size="20px" fill="#9c36b5" text-anchor="start" style="white-space: pre;" direction="ltr" dominant-baseline="text-before-edge">inner diameter</text>
  </g>
  <g stroke-linecap="round">
    <g transform="translate(230.50358172353435 1079.3951876045874) rotate(0 40.13201844141631 9.373907109551624)">
      <path d="M0 0 C29.6 7.08, 59.07 12.95, 80.26 18.75 M0 0 C20.6 4.4, 40.67 9.28, 80.26 18.75" stroke="#9c36b5" stroke-width="2" fill="none"></path>
    </g>
    <g transform="translate(230.50358172353435 1079.3951876045874) rotate(0 40.13201844141631 9.373907109551624)">
      <path d="M3.33 -14.63 C2.66 -9.15, 1.89 -4.55, 0 0 M3.33 -14.63 C2.87 -10.9, 2.02 -7.1, 0 0" stroke="#9c36b5" stroke-width="2" fill="none"></path>
    </g>
    <g transform="translate(230.50358172353435 1079.3951876045874) rotate(0 40.13201844141631 9.373907109551624)">
      <path d="M-3.33 14.63 C-1.75 9.57, -0.12 3.64, 0 0 M-3.33 14.63 C-2.08 10.99, -1.26 7.47, 0 0" stroke="#9c36b5" stroke-width="2" fill="none"></path>
    </g>
    <g transform="translate(230.50358172353435 1079.3951876045874) rotate(0 40.13201844141631 9.373907109551624)">
      <path d="M76.77 33.34 C78.41 28.29, 80.1 22.38, 80.26 18.75 M76.77 33.34 C78.07 29.71, 78.93 26.2, 80.26 18.75" stroke="#9c36b5" stroke-width="2" fill="none"></path>
    </g>
    <g transform="translate(230.50358172353435 1079.3951876045874) rotate(0 40.13201844141631 9.373907109551624)">
      <path d="M83.75 4.16 C83.03 9.62, 82.2 14.21, 80.26 18.75 M83.75 4.16 C83.25 7.87, 82.36 11.67, 80.26 18.75" stroke="#9c36b5" stroke-width="2" fill="none"></path>
    </g>
  </g>
  <mask></mask>
  <g transform="translate(375.0735868885525 985.9192026043206) rotate(0 68.05994415283203 12.5)">
    <text x="0" y="0" font-family="Virgil, Segoe UI Emoji" font-size="20px" fill="#1e1e1e" text-anchor="start" style="white-space: pre;" direction="ltr" dominant-baseline="text-before-edge">Wall thickness</text>
  </g>
  <g stroke-linecap="round">
    <g transform="translate(367.12006521830887 994.7087341886752) rotate(0 -32.74553428364453 29.659314076766123)">
      <path d="M3.37 -3 C-22.05 22.72, -47.42 46.63, -64.84 56.26 M1.74 1.45 C-17.68 16.53, -32.75 32.28, -66.97 57.61" stroke="#1e1e1e" stroke-width="1" fill="none"></path>
    </g>
    <g transform="translate(367.12006521830887 994.7087341886752) rotate(0 -32.74553428364453 29.659314076766123)">
      <path d="M-47.66 29.2 C-54.38 41.43, -60.7 52.31, -66.31 54.55 M-49.29 33.65 C-55.53 40, -57.69 46.92, -68.44 55.91" stroke="#1e1e1e" stroke-width="1" fill="none"></path>
    </g>
    <g transform="translate(367.12006521830887 994.7087341886752) rotate(0 -32.74553428364453 29.659314076766123)">
      <path d="M-35.05 45.39 C-46.76 51.52, -57.94 56.18, -66.31 54.55 M-36.68 49.84 C-46.08 51.94, -51.52 54.64, -68.44 55.91" stroke="#1e1e1e" stroke-width="1" fill="none"></path>
    </g>
  </g>
  <mask></mask>
  <g transform="translate(920.8845779503754 1190.9434979556286) rotate(0 49.859954833984375 25)">
    <text x="0" y="0" font-family="Virgil, Segoe UI Emoji" font-size="20px" fill="#1e1e1e" text-anchor="start" style="white-space: pre;" direction="ltr" dominant-baseline="text-before-edge">Connection</text>
    <text x="0" y="25" font-family="Virgil, Segoe UI Emoji" font-size="20px" fill="#1e1e1e" text-anchor="start" style="white-space: pre;" direction="ltr" dominant-baseline="text-before-edge">Fitting</text>
  </g>
  <g stroke-linecap="round">
    <g transform="translate(912.9310562801315 1196.4836724144202) rotate(0 -42.85131308721054 23.780388033440317)">
      <path d="M-3.94 0.66 C-35.7 23.86, -71.57 39.79, -86.24 48.94 M-1.25 1.11 C-34.28 15.27, -64.41 33.45, -84.21 47.48" stroke="#1e1e1e" stroke-width="1" fill="none"></path>
    </g>
    <g transform="translate(912.9310562801315 1196.4836724144202) rotate(0 -42.85131308721054 23.780388033440317)">
      <path d="M-70.31 24.01 C-75.07 36.79, -83.99 43.41, -84.75 48.85 M-67.63 24.47 C-74.94 30.61, -79.77 40.05, -82.71 47.4" stroke="#1e1e1e" stroke-width="1" fill="none"></path>
    </g>
    <g transform="translate(912.9310562801315 1196.4836724144202) rotate(0 -42.85131308721054 23.780388033440317)">
      <path d="M-58.98 41.11 C-68.2 47.29, -81.62 47.12, -84.75 48.85 M-56.29 41.57 C-67.53 41.22, -76.58 44.28, -82.71 47.4" stroke="#1e1e1e" stroke-width="1" fill="none"></path>
    </g>
  </g>
  <mask></mask>
  <g transform="translate(1008.489463088662 1005.9192026043204) rotate(0 126.6098861694336 25)">
    <text x="0" y="0" font-family="Virgil, Segoe UI Emoji" font-size="20px" fill="#1e1e1e" text-anchor="start" style="white-space: pre;" direction="ltr" dominant-baseline="text-before-edge">Connection point</text>
    <text x="0" y="25" font-family="Virgil, Segoe UI Emoji" font-size="20px" fill="#1e1e1e" text-anchor="start" style="white-space: pre;" direction="ltr" dominant-baseline="text-before-edge">e.g. building, gutter, inlet </text>
  </g>
  <g stroke-linecap="round">
    <g transform="translate(1000.5359414184181 1009.7908595974059) rotate(0 -45.1080967574926 14.125173234801764)">
      <path d="M3.54 0.32 C-15.83 4, -38.36 11.59, -92.27 29.69 M1.67 0.39 C-33.28 9.23, -64.98 19.22, -89.32 29.02" stroke="#1e1e1e" stroke-width="1" fill="none"></path>
    </g>
    <g transform="translate(1000.5359414184181 1009.7908595974059) rotate(0 -45.1080967574926 14.125173234801764)">
      <path d="M-62.92 9.9 C-68.43 12.79, -77.24 18.58, -91.37 30.45 M-64.79 9.98 C-75.84 15.51, -83.64 22.38, -88.42 29.78" stroke="#1e1e1e" stroke-width="1" fill="none"></path>
    </g>
    <g transform="translate(1000.5359414184181 1009.7908595974059) rotate(0 -45.1080967574926 14.125173234801764)">
      <path d="M-55.78 29.14 C-62.4 28, -72.67 29.88, -91.37 30.45 M-57.65 29.22 C-71.25 27.94, -81.59 27.98, -88.42 29.78" stroke="#1e1e1e" stroke-width="1" fill="none"></path>
    </g>
  </g>
  <mask></mask>
  <g transform="translate(706.8427252375905 1106.468037993793) rotate(0 37.379974365234375 12.5)">
    <text x="0" y="0" font-family="Virgil, Segoe UI Emoji" font-size="20px" fill="#1e1e1e" text-anchor="start" style="white-space: pre;" direction="ltr" dominant-baseline="text-before-edge">Lateral</text>
  </g>
  <g stroke-linecap="round">
    <g transform="translate(782.7489415937675 1138.1267657987319) rotate(0 25.9998619390135 18.898588756267827)">
      <path d="M2.18 3.61 C13.06 12.03, 21.19 16.57, 55.98 36.6 M-0.84 -1.58 C14.09 12.78, 30.25 24.51, 50.89 38.18" stroke="#1e1e1e" stroke-width="1" fill="none"></path>
    </g>
    <g transform="translate(782.7489415937675 1138.1267657987319) rotate(0 25.9998619390135 18.898588756267827)">
      <path d="M24 34.38 C29.55 36, 32.36 33.48, 54.87 36.99 M20.98 29.19 C29.37 34.37, 38.45 36.71, 49.78 38.57" stroke="#1e1e1e" stroke-width="1" fill="none"></path>
    </g>
    <g transform="translate(782.7489415937675 1138.1267657987319) rotate(0 25.9998619390135 18.898588756267827)">
      <path d="M35.56 17.43 C38.44 23.1, 38.57 24.51, 54.87 36.99 M32.54 12.24 C37.06 22.75, 42.56 30.34, 49.78 38.57" stroke="#1e1e1e" stroke-width="1" fill="none"></path>
    </g>
  </g>
  <mask></mask>
  <g stroke-linecap="round" transform="translate(139.42944751772933 1897.268676983243) rotate(0 57.44447859193792 57.44447859193792)">
    <path d="M114.89 57.44 C114.89 59.75, 114.75 62.08, 114.47 64.37 C114.19 66.66, 113.77 68.95, 113.22 71.19 C112.67 73.43, 111.97 75.66, 111.16 77.81 C110.34 79.97, 109.38 82.1, 108.31 84.14 C107.24 86.18, 106.03 88.18, 104.72 90.08 C103.41 91.98, 101.97 93.81, 100.44 95.54 C98.91 97.26, 97.26 98.91, 95.54 100.44 C93.81 101.97, 91.98 103.41, 90.08 104.72 C88.18 106.03, 86.18 107.24, 84.14 108.31 C82.1 109.38, 79.97 110.34, 77.81 111.16 C75.66 111.97, 73.43 112.67, 71.19 113.22 C68.95 113.77, 66.66 114.19, 64.37 114.47 C62.08 114.75, 59.75 114.89, 57.44 114.89 C55.14 114.89, 52.81 114.75, 50.52 114.47 C48.23 114.19, 45.94 113.77, 43.7 113.22 C41.46 112.67, 39.23 111.97, 37.07 111.16 C34.92 110.34, 32.79 109.38, 30.75 108.31 C28.71 107.24, 26.71 106.03, 24.81 104.72 C22.91 103.41, 21.08 101.97, 19.35 100.44 C17.62 98.91, 15.98 97.26, 14.45 95.54 C12.92 93.81, 11.48 91.98, 10.17 90.08 C8.86 88.18, 7.65 86.18, 6.58 84.14 C5.51 82.1, 4.55 79.97, 3.73 77.81 C2.91 75.66, 2.22 73.43, 1.67 71.19 C1.12 68.95, 0.7 66.66, 0.42 64.37 C0.14 62.08, 0 59.75, 0 57.44 C0 55.14, 0.14 52.81, 0.42 50.52 C0.7 48.23, 1.12 45.94, 1.67 43.7 C2.22 41.46, 2.91 39.23, 3.73 37.07 C4.55 34.92, 5.51 32.79, 6.58 30.75 C7.65 28.71, 8.86 26.71, 10.17 24.81 C11.48 22.91, 12.92 21.08, 14.45 19.35 C15.98 17.62, 17.62 15.98, 19.35 14.45 C21.08 12.92, 22.91 11.48, 24.81 10.17 C26.71 8.86, 28.71 7.65, 30.75 6.58 C32.79 5.51, 34.92 4.55, 37.07 3.73 C39.23 2.91, 41.46 2.22, 43.7 1.67 C45.94 1.12, 48.23 0.7, 50.52 0.42 C52.81 0.14, 55.14 0, 57.44 0 C59.75 0, 62.08 0.14, 64.37 0.42 C66.66 0.7, 68.95 1.12, 71.19 1.67 C73.43 2.22, 75.66 2.91, 77.81 3.73 C79.97 4.55, 82.1 5.51, 84.14 6.58 C86.18 7.65, 88.18 8.86, 90.08 10.17 C91.98 11.48, 93.81 12.92, 95.54 14.45 C97.26 15.98, 98.91 17.62, 100.44 19.35 C101.97 21.08, 103.41 22.91, 104.72 24.81 C106.03 26.71, 107.24 28.71, 108.31 30.75 C109.38 32.79, 110.34 34.92, 111.16 37.07 C111.97 39.23, 112.67 41.46, 113.22 43.7 C113.77 45.94, 114.19 48.23, 114.47 50.52 C114.75 52.81, 114.89 55.14, 114.89 57.44" stroke="none" stroke-width="0" fill="#868e96"></path>
    <path d="M114.89 57.44 C114.89 59.75, 114.75 62.08, 114.47 64.37 C114.19 66.66, 113.77 68.95, 113.22 71.19 C112.67 73.43, 111.97 75.66, 111.16 77.81 C110.34 79.97, 109.38 82.1, 108.31 84.14 C107.24 86.18, 106.03 88.18, 104.72 90.08 C103.41 91.98, 101.97 93.81, 100.44 95.54 C98.91 97.26, 97.26 98.91, 95.54 100.44 C93.81 101.97, 91.98 103.41, 90.08 104.72 C88.18 106.03, 86.18 107.24, 84.14 108.31 C82.1 109.38, 79.97 110.34, 77.81 111.16 C75.66 111.97, 73.43 112.67, 71.19 113.22 C68.95 113.77, 66.66 114.19, 64.37 114.47 C62.08 114.75, 59.75 114.89, 57.44 114.89 C55.14 114.89, 52.81 114.75, 50.52 114.47 C48.23 114.19, 45.94 113.77, 43.7 113.22 C41.46 112.67, 39.23 111.97, 37.07 111.16 C34.92 110.34, 32.79 109.38, 30.75 108.31 C28.71 107.24, 26.71 106.03, 24.81 104.72 C22.91 103.41, 21.08 101.97, 19.35 100.44 C17.62 98.91, 15.98 97.26, 14.45 95.54 C12.92 93.81, 11.48 91.98, 10.17 90.08 C8.86 88.18, 7.65 86.18, 6.58 84.14 C5.51 82.1, 4.55 79.97, 3.73 77.81 C2.91 75.66, 2.22 73.43, 1.67 71.19 C1.12 68.95, 0.7 66.66, 0.42 64.37 C0.14 62.08, 0 59.75, 0 57.44 C0 55.14, 0.14 52.81, 0.42 50.52 C0.7 48.23, 1.12 45.94, 1.67 43.7 C2.22 41.46, 2.91 39.23, 3.73 37.07 C4.55 34.92, 5.51 32.79, 6.58 30.75 C7.65 28.71, 8.86 26.71, 10.17 24.81 C11.48 22.91, 12.92 21.08, 14.45 19.35 C15.98 17.62, 17.62 15.98, 19.35 14.45 C21.08 12.92, 22.91 11.48, 24.81 10.17 C26.71 8.86, 28.71 7.65, 30.75 6.58 C32.79 5.51, 34.92 4.55, 37.07 3.73 C39.23 2.91, 41.46 2.22, 43.7 1.67 C45.94 1.12, 48.23 0.7, 50.52 0.42 C52.81 0.14, 55.14 0, 57.44 0 C59.75 0, 62.08 0.14, 64.37 0.42 C66.66 0.7, 68.95 1.12, 71.19 1.67 C73.43 2.22, 75.66 2.91, 77.81 3.73 C79.97 4.55, 82.1 5.51, 84.14 6.58 C86.18 7.65, 88.18 8.86, 90.08 10.17 C91.98 11.48, 93.81 12.92, 95.54 14.45 C97.26 15.98, 98.91 17.62, 100.44 19.35 C101.97 21.08, 103.41 22.91, 104.72 24.81 C106.03 26.71, 107.24 28.71, 108.31 30.75 C109.38 32.79, 110.34 34.92, 111.16 37.07 C111.97 39.23, 112.67 41.46, 113.22 43.7 C113.77 45.94, 114.19 48.23, 114.47 50.52 C114.75 52.81, 114.89 55.14, 114.89 57.44" stroke="#868e96" stroke-width="4" fill="none"></path>
  </g>
  <g stroke-linecap="round" transform="translate(1494.47065344355 2364.0222515588052) rotate(0 57.44447859193792 57.44447859193792)">
    <path d="M114.89 57.44 C114.89 59.75, 114.75 62.08, 114.47 64.37 C114.19 66.66, 113.77 68.95, 113.22 71.19 C112.67 73.43, 111.97 75.66, 111.16 77.81 C110.34 79.97, 109.38 82.1, 108.31 84.14 C107.24 86.18, 106.03 88.18, 104.72 90.08 C103.41 91.98, 101.97 93.81, 100.44 95.54 C98.91 97.26, 97.26 98.91, 95.54 100.44 C93.81 101.97, 91.98 103.41, 90.08 104.72 C88.18 106.03, 86.18 107.24, 84.14 108.31 C82.1 109.38, 79.97 110.34, 77.81 111.16 C75.66 111.97, 73.43 112.67, 71.19 113.22 C68.95 113.77, 66.66 114.19, 64.37 114.47 C62.08 114.75, 59.75 114.89, 57.44 114.89 C55.14 114.89, 52.81 114.75, 50.52 114.47 C48.23 114.19, 45.94 113.77, 43.7 113.22 C41.46 112.67, 39.23 111.97, 37.07 111.16 C34.92 110.34, 32.79 109.38, 30.75 108.31 C28.71 107.24, 26.71 106.03, 24.81 104.72 C22.91 103.41, 21.08 101.97, 19.35 100.44 C17.62 98.91, 15.98 97.26, 14.45 95.54 C12.92 93.81, 11.48 91.98, 10.17 90.08 C8.86 88.18, 7.65 86.18, 6.58 84.14 C5.51 82.1, 4.55 79.97, 3.73 77.81 C2.91 75.66, 2.22 73.43, 1.67 71.19 C1.12 68.95, 0.7 66.66, 0.42 64.37 C0.14 62.08, 0 59.75, 0 57.44 C0 55.14, 0.14 52.81, 0.42 50.52 C0.7 48.23, 1.12 45.94, 1.67 43.7 C2.22 41.46, 2.91 39.23, 3.73 37.07 C4.55 34.92, 5.51 32.79, 6.58 30.75 C7.65 28.71, 8.86 26.71, 10.17 24.81 C11.48 22.91, 12.92 21.08, 14.45 19.35 C15.98 17.62, 17.62 15.98, 19.35 14.45 C21.08 12.92, 22.91 11.48, 24.81 10.17 C26.71 8.86, 28.71 7.65, 30.75 6.58 C32.79 5.51, 34.92 4.55, 37.07 3.73 C39.23 2.91, 41.46 2.22, 43.7 1.67 C45.94 1.12, 48.23 0.7, 50.52 0.42 C52.81 0.14, 55.14 0, 57.44 0 C59.75 0, 62.08 0.14, 64.37 0.42 C66.66 0.7, 68.95 1.12, 71.19 1.67 C73.43 2.22, 75.66 2.91, 77.81 3.73 C79.97 4.55, 82.1 5.51, 84.14 6.58 C86.18 7.65, 88.18 8.86, 90.08 10.17 C91.98 11.48, 93.81 12.92, 95.54 14.45 C97.26 15.98, 98.91 17.62, 100.44 19.35 C101.97 21.08, 103.41 22.91, 104.72 24.81 C106.03 26.71, 107.24 28.71, 108.31 30.75 C109.38 32.79, 110.34 34.92, 111.16 37.07 C111.97 39.23, 112.67 41.46, 113.22 43.7 C113.77 45.94, 114.19 48.23, 114.47 50.52 C114.75 52.81, 114.89 55.14, 114.89 57.44" stroke="none" stroke-width="0" fill="#868e96"></path>
    <path d="M114.89 57.44 C114.89 59.75, 114.75 62.08, 114.47 64.37 C114.19 66.66, 113.77 68.95, 113.22 71.19 C112.67 73.43, 111.97 75.66, 111.16 77.81 C110.34 79.97, 109.38 82.1, 108.31 84.14 C107.24 86.18, 106.03 88.18, 104.72 90.08 C103.41 91.98, 101.97 93.81, 100.44 95.54 C98.91 97.26, 97.26 98.91, 95.54 100.44 C93.81 101.97, 91.98 103.41, 90.08 104.72 C88.18 106.03, 86.18 107.24, 84.14 108.31 C82.1 109.38, 79.97 110.34, 77.81 111.16 C75.66 111.97, 73.43 112.67, 71.19 113.22 C68.95 113.77, 66.66 114.19, 64.37 114.47 C62.08 114.75, 59.75 114.89, 57.44 114.89 C55.14 114.89, 52.81 114.75, 50.52 114.47 C48.23 114.19, 45.94 113.77, 43.7 113.22 C41.46 112.67, 39.23 111.97, 37.07 111.16 C34.92 110.34, 32.79 109.38, 30.75 108.31 C28.71 107.24, 26.71 106.03, 24.81 104.72 C22.91 103.41, 21.08 101.97, 19.35 100.44 C17.62 98.91, 15.98 97.26, 14.45 95.54 C12.92 93.81, 11.48 91.98, 10.17 90.08 C8.86 88.18, 7.65 86.18, 6.58 84.14 C5.51 82.1, 4.55 79.97, 3.73 77.81 C2.91 75.66, 2.22 73.43, 1.67 71.19 C1.12 68.95, 0.7 66.66, 0.42 64.37 C0.14 62.08, 0 59.75, 0 57.44 C0 55.14, 0.14 52.81, 0.42 50.52 C0.7 48.23, 1.12 45.94, 1.67 43.7 C2.22 41.46, 2.91 39.23, 3.73 37.07 C4.55 34.92, 5.51 32.79, 6.58 30.75 C7.65 28.71, 8.86 26.71, 10.17 24.81 C11.48 22.91, 12.92 21.08, 14.45 19.35 C15.98 17.62, 17.62 15.98, 19.35 14.45 C21.08 12.92, 22.91 11.48, 24.81 10.17 C26.71 8.86, 28.71 7.65, 30.75 6.58 C32.79 5.51, 34.92 4.55, 37.07 3.73 C39.23 2.91, 41.46 2.22, 43.7 1.67 C45.94 1.12, 48.23 0.7, 50.52 0.42 C52.81 0.14, 55.14 0, 57.44 0 C59.75 0, 62.08 0.14, 64.37 0.42 C66.66 0.7, 68.95 1.12, 71.19 1.67 C73.43 2.22, 75.66 2.91, 77.81 3.73 C79.97 4.55, 82.1 5.51, 84.14 6.58 C86.18 7.65, 88.18 8.86, 90.08 10.17 C91.98 11.48, 93.81 12.92, 95.54 14.45 C97.26 15.98, 98.91 17.62, 100.44 19.35 C101.97 21.08, 103.41 22.91, 104.72 24.81 C106.03 26.71, 107.24 28.71, 108.31 30.75 C109.38 32.79, 110.34 34.92, 111.16 37.07 C111.97 39.23, 112.67 41.46, 113.22 43.7 C113.77 45.94, 114.19 48.23, 114.47 50.52 C114.75 52.81, 114.89 55.14, 114.89 57.44" stroke="#868e96" stroke-width="4" fill="none"></path>
  </g>
  <g transform="translate(24.825496979540958 2025.5081508149406) rotate(0 23.139976501464844 12.5)">
    <text x="0" y="0" font-family="Virgil, Segoe UI Emoji" font-size="20px" fill="#1e1e1e" text-anchor="start" style="white-space: pre;" direction="ltr" dominant-baseline="text-before-edge">Node</text>
  </g>
  <g stroke-linecap="round">
    <g transform="translate(84.11608714502552 2030.98198750331) rotate(0 43.91309923211995 -28.924388725899234)">
      <path d="M3.96 -3.77 C34.87 -17.19, 65.9 -35.29, 89.29 -54.29 M-1.17 1.9 C23.77 -14.34, 47.23 -30.73, 86.22 -55.85" stroke="#1e1e1e" stroke-width="2" fill="none"></path>
    </g>
    <g transform="translate(84.11608714502552 2030.98198750331) rotate(0 43.91309923211995 -28.924388725899234)">
      <path d="M72.19 -35.62 C78.28 -38.16, 84.87 -44.42, 87.68 -52.3 M67.06 -29.94 C73.71 -37.47, 79.47 -45.29, 84.61 -53.85" stroke="#1e1e1e" stroke-width="2" fill="none"></path>
    </g>
    <g transform="translate(84.11608714502552 2030.98198750331) rotate(0 43.91309923211995 -28.924388725899234)">
      <path d="M60.97 -52.8 C70.78 -49.18, 81.3 -49.42, 87.68 -52.3 M55.84 -47.12 C65.03 -50.32, 73.63 -53.78, 84.61 -53.85" stroke="#1e1e1e" stroke-width="2" fill="none"></path>
    </g>
  </g>
  <mask></mask>
  <g transform="translate(730.7424842310566 2248.3168753484806) rotate(0 22.90998077392578 12.5)">
    <text x="0" y="0" font-family="Virgil, Segoe UI Emoji" font-size="20px" fill="#1e1e1e" text-anchor="start" style="white-space: pre;" direction="ltr" dominant-baseline="text-before-edge">Edge</text>
  </g>
  <g stroke-linecap="round">
    <g transform="translate(789.5730829414631 2253.8991510322294) rotate(0 44.14309495965904 -28.978608223588935)">
      <path d="M-3.67 -3.64 C17.79 -8.98, 41.15 -23.58, 91.75 -57.08 M1.48 1.61 C35.22 -24.57, 68.13 -45.26, 88.69 -57.15" stroke="#1e1e1e" stroke-width="2" fill="none"></path>
    </g>
    <g transform="translate(789.5730829414631 2253.8991510322294) rotate(0 44.14309495965904 -28.978608223588935)">
      <path d="M66.18 -37.44 C72.03 -35.74, 80.05 -42.69, 92.15 -56.27 M71.33 -32.19 C77.52 -44.7, 83.09 -51.76, 89.09 -56.34" stroke="#1e1e1e" stroke-width="2" fill="none"></path>
    </g>
    <g transform="translate(789.5730829414631 2253.8991510322294) rotate(0 44.14309495965904 -28.978608223588935)">
      <path d="M55.58 -55.01 C63.65 -49.33, 74 -52.4, 92.15 -56.27 M60.73 -49.76 C70.99 -55.36, 80.73 -55.51, 89.09 -56.34" stroke="#1e1e1e" stroke-width="2" fill="none"></path>
    </g>
  </g>
  <mask></mask>
  <g stroke-linecap="round" transform="translate(846.3699353594029 1050.0287599577175) rotate(18.99982439884487 4.84553650674934 101.27275773230599)">
    <path d="M0 0 C2.96 -0.04, 5.78 0.45, 9.69 0 M0 0 C2.84 -0.05, 5.82 -0.16, 9.69 0 M9.69 0 C10.22 63.02, 9.09 127.06, 9.69 202.55 M9.69 0 C9.09 71.8, 9.35 144.08, 9.69 202.55 M9.69 202.55 C6.14 202.43, 1.97 202.8, 0 202.55 M9.69 202.55 C7 202.6, 4.85 202.56, 0 202.55 M0 202.55 C-0.47 140.28, -0.21 79.96, 0 0 M0 202.55 C-0.27 127.63, -0.21 53.13, 0 0" stroke="#1e1e1e" stroke-width="2" fill="none"></path>
  </g>
  <g stroke-linecap="round" transform="translate(872.766810685649 1023.5164037653522) rotate(0 16.870621160079963 16.870621160079963)">
    <path d="M14.68 0.04 C18.19 -0.64, 23.35 0.33, 26.32 2.23 C29.3 4.13, 31.5 7.87, 32.52 11.42 C33.55 14.97, 33.81 20.14, 32.48 23.54 C31.15 26.94, 27.78 30.19, 24.55 31.81 C21.32 33.43, 16.55 34.13, 13.09 33.27 C9.64 32.4, 5.96 29.4, 3.81 26.61 C1.65 23.82, 0.08 20.07, 0.17 16.51 C0.25 12.95, 1.88 7.96, 4.33 5.24 C6.79 2.53, 12.92 0.99, 14.88 0.22 C16.85 -0.56, 15.95 0.27, 16.13 0.58 M18.22 0.24 C21.57 0.2, 25.34 1.98, 27.83 4.3 C30.32 6.62, 32.73 10.66, 33.16 14.17 C33.59 17.67, 32.35 22.32, 30.41 25.34 C28.47 28.36, 24.82 31.11, 21.52 32.29 C18.22 33.47, 13.86 33.71, 10.58 32.43 C7.31 31.16, 3.58 27.78, 1.85 24.65 C0.12 21.52, -0.54 17.13, 0.21 13.66 C0.95 10.18, 3.37 6.15, 6.3 3.8 C9.22 1.45, 15.73 0.06, 17.74 -0.45 C19.75 -0.97, 18.33 0.32, 18.33 0.7" stroke="#1e1e1e" stroke-width="2" fill="none"></path>
  </g>
  <g transform="translate(171.82996368408203 637.1189773119463) rotate(0 71.19994354248044 12.5)">
    <text x="0" y="0" font-family="Virgil, Segoe UI Emoji" font-size="20px" fill="#1e1e1e" text-anchor="start" style="white-space: pre;" direction="ltr" dominant-baseline="text-before-edge">Nominal Length</text>
  </g>
  <g stroke-linecap="round">
    <g transform="translate(1605.1560053749688 603.2137857057576) rotate(0 59.90078299386164 -0.833343505859375)">
      <path d="M0.9 -0.98 C21.07 -1.5, 100.29 -2.31, 119.95 -2.26 M-0.09 1.12 C20.04 0.67, 98.86 -0.44, 119.08 -1.03" stroke="#1e1e1e" stroke-width="2" fill="none"></path>
    </g>
    <g transform="translate(1605.1560053749688 603.2137857057576) rotate(0 59.90078299386164 -0.833343505859375)">
      <path d="M0.7 -15.98 C-0.36 -12.69, 0.16 -10.96, 0.9 -0.98 M0.7 -15.98 C0.66 -10.35, 1.46 -4.19, 0.9 -0.98" stroke="#1e1e1e" stroke-width="2" fill="none"></path>
    </g>
    <g transform="translate(1605.1560053749688 603.2137857057576) rotate(0 59.90078299386164 -0.833343505859375)">
      <path d="M1.09 14.02 C-0.29 11.11, 0.16 6.65, 0.9 -0.98 M1.09 14.02 C1.08 8.05, 1.74 2.61, 0.9 -0.98" stroke="#1e1e1e" stroke-width="2" fill="none"></path>
    </g>
    <g transform="translate(1605.1560053749688 603.2137857057576) rotate(0 59.90078299386164 -0.833343505859375)">
      <path d="M119.39 13.97 C117.99 11.06, 118.41 6.6, 119.08 -1.03 M119.39 13.97 C119.34 8, 119.95 2.56, 119.08 -1.03" stroke="#1e1e1e" stroke-width="2" fill="none"></path>
    </g>
    <g transform="translate(1605.1560053749688 603.2137857057576) rotate(0 59.90078299386164 -0.833343505859375)">
      <path d="M118.77 -16.03 C117.73 -12.74, 118.28 -11.01, 119.08 -1.03 M118.77 -16.03 C118.78 -10.4, 119.62 -4.25, 119.08 -1.03" stroke="#1e1e1e" stroke-width="2" fill="none"></path>
    </g>
  </g>
  <mask></mask>
  <g transform="translate(1599.2341286795477 633.2023999016276) rotate(0 71.19994354248047 12.5)">
    <text x="0" y="0" font-family="Virgil, Segoe UI Emoji" font-size="20px" fill="#1e1e1e" text-anchor="start" style="white-space: pre;" direction="ltr" dominant-baseline="text-before-edge">Nominal Length</text>
  </g>
  <g transform="translate(1842.6067493983678 1604.0348806077373) rotate(0 34.469970703125 25)">
    <text x="0" y="0" font-family="Virgil, Segoe UI Emoji" font-size="20px" fill="#1e1e1e" text-anchor="start" style="white-space: pre;" direction="ltr" dominant-baseline="text-before-edge">Nominal</text>
    <text x="0" y="25" font-family="Virgil, Segoe UI Emoji" font-size="20px" fill="#1e1e1e" text-anchor="start" style="white-space: pre;" direction="ltr" dominant-baseline="text-before-edge">width</text>
  </g>
</svg>